<svg width="10" height="10" viewBox="0 0 10 10" fill="none" xmlns="http://www.w3.org/2000/svg">
<path d="M3.21094 0.246261C3.27723 0.168229 3.3561 0.106294 3.443 0.0640274C3.52989 0.021761 3.6231 0 3.71724 0C3.81138 0 3.90458 0.021761 3.99148 0.0640274C4.07838 0.106294 4.15725 0.168229 4.22354 0.246261L7.78906 4.4089C7.8559 4.4863 7.90895 4.57838 7.94516 4.67983C7.98136 4.78128 8 4.8901 8 5C8 5.1099 7.98136 5.21872 7.94516 5.32017C7.90895 5.42162 7.8559 5.5137 7.78906 5.5911L4.22354 9.75374C4.15725 9.83177 4.07838 9.89371 3.99148 9.93597C3.90458 9.97824 3.81138 10 3.71724 10C3.6231 10 3.52989 9.97824 3.443 9.93597C3.3561 9.89371 3.27723 9.83177 3.21094 9.75374C3.1441 9.67634 3.09105 9.58427 3.05484 9.48282C3.01864 9.38136 3 9.27255 3 9.16264C3 9.05274 3.01864 8.94392 3.05484 8.84247C3.09105 8.74102 3.1441 8.64894 3.21094 8.57155L6.27728 5L3.21094 1.42845C3.1441 1.35106 3.09105 1.25898 3.05484 1.15753C3.01864 1.05608 3 0.94726 3 0.837356C3 0.727452 3.01864 0.618636 3.05484 0.517185C3.09105 0.415734 3.1441 0.323655 3.21094 0.246261Z" fill="#403F38"/>
</svg>
