<svg width="20" height="20" viewBox="0 0 20 20" fill="none" xmlns="http://www.w3.org/2000/svg">
<path d="M14.166 8.33333C13.916 8.33333 13.7493 8.25 13.5827 8.08333L9.41602 3.91667C9.08268 3.58333 9.08268 3.08333 9.41602 2.75C9.74935 2.41667 10.2493 2.41667 10.5827 2.75L14.7494 6.91667C15.0827 7.25 15.0827 7.75 14.7494 8.08333C14.5827 8.25 14.416 8.33333 14.166 8.33333Z" fill="white"/>
<path d="M5.83333 8.33333C5.58333 8.33333 5.41667 8.25 5.25 8.08333C4.91667 7.75 4.91667 7.25 5.25 6.91667L9.41667 2.75C9.75 2.41667 10.25 2.41667 10.5833 2.75C10.9167 3.08333 10.9167 3.58333 10.5833 3.91667L6.41667 8.08333C6.25 8.25 6.08333 8.33333 5.83333 8.33333Z" fill="white"/>
<path d="M9.99935 17.5C9.49935 17.5 9.16602 17.1667 9.16602 16.6667L9.16602 3.33333C9.16602 2.83333 9.49935 2.5 9.99935 2.5C10.4993 2.5 10.8327 2.83333 10.8327 3.33333L10.8327 16.6667C10.8327 17.1667 10.4993 17.5 9.99935 17.5Z" fill="white"/>
</svg>
