<svg width="30" height="30" viewBox="0 0 30 30" fill="none" xmlns="http://www.w3.org/2000/svg">
<g clip-path="url(#clip0_934_1835)">
<path d="M16.6568 15.0001L29.6562 2.00058C30.1138 1.5429 30.1138 0.800873 29.6562 0.343257C29.1985 -0.11436 28.4565 -0.114419 27.9988 0.343257L14.9994 13.3427L1.99997 0.343257C1.54229 -0.114419 0.800262 -0.114419 0.342646 0.343257C-0.114971 0.800932 -0.115029 1.54296 0.342646 2.00058L13.3421 15L0.342646 27.9995C-0.115029 28.4572 -0.115029 29.1992 0.342646 29.6568C0.571454 29.8856 0.871395 30 1.17134 30C1.47128 30 1.77116 29.8856 2.00003 29.6568L14.9994 16.6574L27.9988 29.6568C28.2276 29.8856 28.5275 30 28.8275 30C29.1274 30 29.4273 29.8856 29.6562 29.6568C30.1138 29.1991 30.1138 28.4571 29.6562 27.9995L16.6568 15.0001Z" fill="#929292"/>
</g>
<defs>
<clipPath id="clip0_934_1835">
<rect width="30" height="30" fill="white"/>
</clipPath>
</defs>
</svg>
