<svg width="16" height="16" viewBox="0 0 16 16" fill="none" xmlns="http://www.w3.org/2000/svg">
<g clip-path="url(#clip0_964_1016)">
<path d="M15.9988 5.70866C15.9988 9.09628 15.9988 12.4843 15.9988 15.8727C15.9988 15.9794 15.9782 16 15.8715 16C10.6234 15.9972 5.37555 15.9968 0.127869 15.9988C0.0212105 15.9988 0 15.9794 0 15.8727C0.00363609 10.6238 0.00363609 5.37555 0 0.127869C0 0.0212105 0.0212105 0 0.127869 0C5.37555 0.00363609 10.6238 0.00363609 15.8727 0C15.9794 0 16.0006 0.0206045 16 0.127869C15.9956 1.71765 15.9956 3.30763 16 4.89781C15.9649 4.88993 15.9715 4.85963 15.9685 4.83721C15.9003 4.31131 15.7203 3.80609 15.4406 3.3555C14.6801 2.10166 13.0602 1.41626 11.6288 1.74047C10.9108 1.90087 10.2548 2.26636 9.74047 2.79252C7.88203 4.65096 6.02358 6.51042 4.16514 8.37088C4.10454 8.43148 4.04394 8.49815 3.98334 8.5642C3.16946 9.49201 3.31672 10.9555 4.29907 11.7046C5.18749 12.3815 6.37891 12.3033 7.19097 11.4985C8.42643 10.2724 9.65866 9.04174 10.8877 7.80668C10.9281 7.7663 10.966 7.72338 11.001 7.67821C11.0967 7.55105 11.1477 7.39583 11.146 7.23669C11.1444 7.07756 11.0902 6.92342 10.9919 6.79827C10.701 6.43466 10.2192 6.42497 9.8635 6.7807C8.65147 7.98828 7.44227 9.19688 6.23589 10.4065C6.18199 10.4625 6.12428 10.5148 6.06318 10.5628C5.97978 10.6252 5.88385 10.6686 5.78201 10.6903C5.68017 10.7119 5.57485 10.7112 5.47333 10.6881C5.3718 10.6651 5.27648 10.6202 5.19397 10.5568C5.11145 10.4933 5.04369 10.4127 4.99538 10.3204C4.83115 10.0102 4.89539 9.69321 5.18324 9.40474L10.7828 3.80517C10.8368 3.7491 10.8936 3.6959 10.9531 3.64578C11.5749 3.12461 12.29 2.9725 13.0602 3.23006C14.6225 3.75123 15.0486 5.68321 13.8668 6.86978C11.8209 8.92417 9.77118 10.9749 7.7176 13.022C7.17824 13.5614 6.53951 13.9311 5.78744 14.0553C4.44754 14.2801 3.28945 13.9026 2.39376 12.8772C1.49807 11.8518 1.27869 10.6483 1.67987 9.34293C1.86168 8.75994 2.20165 8.27634 2.63071 7.8485C4.64874 5.83249 6.66596 3.81527 8.68237 1.79683C8.73412 1.74636 8.7827 1.69272 8.82782 1.63624C8.92048 1.52907 8.97792 1.39598 8.99234 1.25504C9.00676 1.1141 8.97746 0.972136 8.90842 0.848421C8.68601 0.412696 8.09696 0.3224 7.70063 0.721157C5.65796 2.77555 3.61144 4.82388 1.56109 6.86615C0.712673 7.71457 0.193925 8.73873 0.0690857 9.93864C-0.0702977 11.2719 0.241194 12.5045 1.0781 13.5626C2.36103 15.1831 4.04757 15.8127 6.08257 15.4709C7.11946 15.2964 7.99939 14.7898 8.74237 14.048C10.7931 11.9985 12.8435 9.94814 14.8934 7.89698C15.4054 7.39742 15.76 6.75887 15.9133 6.06015C15.9382 5.94319 15.9212 5.81411 15.9988 5.70866Z" fill="#FDFDFD"/>
<path d="M15.9988 5.70867C15.923 5.81412 15.9382 5.9432 15.9152 6.06016C15.7618 6.75889 15.4073 7.39743 14.8952 7.89699C12.8433 9.94775 10.7923 11.9981 8.74237 14.048C7.99939 14.7898 7.11946 15.2964 6.08257 15.471C4.04939 15.8128 2.36346 15.1831 1.0781 13.5626C0.242405 12.5045 -0.0702991 11.2719 0.0690843 9.93866C0.193923 8.73875 0.710248 7.71761 1.56109 6.86616C3.60659 4.81864 5.65169 2.77092 7.69639 0.72299C8.09393 0.324232 8.68298 0.414528 8.90841 0.848435C8.97786 0.97185 9.00767 1.11364 8.99379 1.25457C8.97992 1.3955 8.92303 1.52875 8.83084 1.63625C8.78491 1.69239 8.73552 1.74562 8.68298 1.79564C6.66414 3.81407 4.64591 5.83169 2.62828 7.84851C2.19923 8.27636 1.85683 8.75753 1.67745 9.34294C1.27627 10.6483 1.48837 11.847 2.39133 12.8772C3.29429 13.9074 4.44754 14.2801 5.78502 14.0553C6.53708 13.9293 7.17885 13.5614 7.71517 13.0221C9.76552 10.9713 11.8153 8.92055 13.8644 6.8698C15.0461 5.68322 14.6201 3.75125 13.0578 3.23007C12.2876 2.97252 11.5737 3.12463 10.9446 3.6464C10.8851 3.69652 10.8283 3.74972 10.7743 3.80579C8.9074 5.67231 7.04088 7.53884 5.17476 9.40536C4.8869 9.69383 4.82266 10.0114 4.98689 10.3211C5.03521 10.4133 5.10296 10.4939 5.18548 10.5574C5.268 10.6209 5.36331 10.6657 5.46484 10.6887C5.56637 10.7118 5.67169 10.7125 5.77353 10.6909C5.87536 10.6693 5.9713 10.6258 6.05469 10.5635C6.11579 10.5154 6.1735 10.4631 6.22741 10.4071C7.43701 9.19871 8.64621 7.99012 9.85501 6.78132C10.2107 6.42559 10.6925 6.43528 10.9834 6.79889C11.0817 6.92404 11.1359 7.07818 11.1376 7.23731C11.1392 7.39645 11.0882 7.55167 10.9925 7.67883C10.9575 7.724 10.9196 7.76692 10.8792 7.8073C9.64816 9.03872 8.41694 10.2693 7.18552 11.4991C6.37346 12.3039 5.18203 12.3821 4.29361 11.7052C3.31187 10.9562 3.164 9.49263 3.97788 8.56482C4.03848 8.49876 4.09908 8.43392 4.15968 8.3715C6.01813 6.51306 7.87657 4.65461 9.73502 2.79617C10.2493 2.27001 10.9053 1.90452 11.6234 1.74412C13.0548 1.42172 14.6746 2.10773 15.4352 3.35915C15.7148 3.80974 15.8948 4.31496 15.963 4.84086C15.9661 4.8651 15.9594 4.8954 15.9945 4.90146L15.9988 5.70867Z" fill="#010101"/>
</g>
<defs>
<clipPath id="clip0_964_1016">
<rect width="16" height="16" fill="white"/>
</clipPath>
</defs>
</svg>
