<svg width="30" height="30" viewBox="0 0 30 30" fill="none" xmlns="http://www.w3.org/2000/svg">
<g clip-path="url(#clip0_914_1010)">
<path d="M14.9952 6.43039H1.87474C0.466892 6.43039 -0.314087 5.38206 0.121179 4.07219C0.201191 3.79953 0.357048 3.55696 0.569495 3.37446C0.781943 3.19197 1.04167 3.07754 1.3166 3.0453C1.52351 3.01485 1.73237 3.00051 1.94138 3.00243H27.849C27.9969 3.00243 28.1448 3.00243 28.2947 3.00243C29.3652 3.03458 29.99 3.66487 30.0004 4.69818C30.0108 5.7315 29.3756 6.41324 28.2801 6.41324C26.0059 6.43039 23.7421 6.43039 21.4513 6.43039H14.9952Z" fill="#060606"/>
<path d="M13.3581 27.0107C9.53585 27.0107 5.71357 27.0107 1.89128 27.0107C0.473025 27.0107 -0.307954 25.9795 0.118981 24.6718C0.196155 24.3973 0.350023 24.1521 0.561452 23.9669C0.772881 23.7817 1.03254 23.6645 1.30815 23.6299C1.51506 23.5994 1.72392 23.585 1.93293 23.587H24.6813C24.8592 23.5838 25.0372 23.5903 25.2144 23.6063C26.1225 23.7028 26.6723 24.3567 26.6723 25.3214C26.6723 26.2861 26.1204 26.8971 25.2311 26.9936C25.0532 27.0104 24.8745 27.0175 24.6959 27.015L13.3581 27.0107Z" fill="#060606"/>
<path d="M10.0174 16.7204C7.28918 16.7204 4.58178 16.7204 1.85773 16.7204C0.458216 16.7204 -0.322763 15.6485 0.12708 14.3408C0.208304 14.076 0.361159 13.8407 0.567724 13.6622C0.774288 13.4837 1.026 13.3696 1.29334 13.3332C1.48557 13.3026 1.6799 13.2883 1.87439 13.2903C7.30028 13.2903 12.7248 13.2903 18.1479 13.2903C19.5495 13.2903 20.318 14.2957 19.9202 15.5927C19.8455 15.8749 19.6906 16.1277 19.4753 16.3187C19.2601 16.5096 18.9944 16.6301 18.7123 16.6647C18.4769 16.6965 18.2395 16.7101 18.0021 16.7054L10.0174 16.7204Z" fill="#060606"/>
</g>
<defs>
<clipPath id="clip0_914_1010">
<rect width="30" height="24" fill="white" transform="translate(0 3)"/>
</clipPath>
</defs>
</svg>
