<svg width="76" height="76" viewBox="0 0 76 76" fill="none" xmlns="http://www.w3.org/2000/svg">
<path d="M17.4789 73.0488C16.845 73.0488 16.2098 72.8931 15.623 72.5802C14.3846 71.9194 13.6069 70.6875 13.543 69.285L13.1696 61.1069H6.66914C2.99175 61.1068 0 58.115 0 54.4378V9.61997C0 5.94244 2.99175 2.95068 6.66914 2.95068H69.3309C73.0084 2.95068 76 5.94244 76 9.61982V54.4376C76 58.1151 73.0082 61.1068 69.3309 61.1068H61.043C59.7383 61.1068 58.6801 60.0488 58.6801 58.7438C58.6801 57.4387 59.7381 56.3808 61.043 56.3808H69.3309C70.4023 56.3808 71.2742 55.5092 71.2742 54.4375V9.61997C71.2742 8.5484 70.4026 7.67663 69.3309 7.67663H6.66914C5.59772 7.67663 4.7258 8.54825 4.7258 9.61997V54.4378C4.7258 55.5093 5.59742 56.3811 6.66914 56.3811H15.4272C16.6904 56.3811 17.7302 57.3744 17.7875 58.6363L18.2034 67.7438L36.3812 56.7236C36.7505 56.4996 37.1742 56.3811 37.6064 56.3811H51.3576C52.6624 56.3811 53.7206 57.439 53.7206 58.7441C53.7206 60.0491 52.6626 61.107 51.3576 61.107H38.267L19.5189 72.4733C18.8866 72.8563 18.1836 73.0488 17.4789 73.0488Z" fill="#316376"/>
<path d="M37.9998 39.405C36.6649 39.405 35.3453 38.959 34.2835 38.1498L3.45639 14.6446C1.33151 13.0243 0.510948 10.3415 1.36609 7.80995C2.22094 5.2785 4.50035 3.64258 7.17236 3.64258H68.8274C71.4997 3.64258 73.7787 5.2785 74.6337 7.80995C75.4888 10.3415 74.6681 13.0243 72.5434 14.6446L41.7156 38.1499C40.6546 38.959 39.3349 39.405 37.9998 39.405ZM7.17251 8.36822C6.26378 8.36822 5.94048 9.0353 5.84355 9.32208C5.74663 9.60871 5.59952 10.3353 6.32182 10.8863L37.1496 34.3918C37.4608 34.6293 37.784 34.6792 38 34.6792C38.2159 34.6792 38.5389 34.6293 38.8502 34.3921L69.6782 10.8865C70.4008 10.3355 70.2536 9.60901 70.1565 9.32223C70.0596 9.0353 69.7364 8.36837 68.8275 8.36837L7.17251 8.36822Z" fill="#316376"/>
</svg>
